# xmcd
#
# Track frame offsets:
#	150
#	16584
#	29367
#	40458
#	51166
#	63517
#	76800
#	89447
#	105798
#	120470
#	133606
#	147383
#	165450
#	180791
#	193488
#	205319
#	216720
#	228298
#	243658
#	256241
#
# Disc length: 3628 seconds
#
# Revision: 0
# Processed by: cddbd v1.5.2PL0 Copyright (c) Steve Scherf et al.
# Submitted via: EasyCDDAExtractor 2010.6.0.0
#
DISCID=140e2a14
DTITLE=Various Artist - Country Ladies [CD 3)
DYEAR=1900
DGENRE=Country
TTITLE0=Janie Fricke - Always have always will
TTITLE1=Janie Fricke - Do me with love
TTITLE2=Janie Fricke - Don't worry about me baby
TTITLE3=Janie Fricke - Down to my last broken heart
TTITLE4=Janie Fricke - Ease to please
TTITLE5=Janie Fricke - He's a heartache
TTITLE6=Janie Fricke - If the fall don't get you
TTITLE7=Janie Fricke - It ain't easy being easy
TTITLE8=Janie Fricke - Let's stop talkin' about it
TTITLE9=Janie Fricke - She's single again
TTITLE10=Janie Fricke - Somebody else's fire
TTITLE11=Janie Fricke - Tell me a lie
TTITLE12=Janie Fricke - The first word in memory
TTITLE13=Janie Fricke - Your hearts not in it
TTITLE14=Skeeter Davis - Break my mind
TTITLE15=Skeeter Davis - Rocky top
TTITLE16=Skeeter Davis - Crying time
TTITLE17=Skeeter Davis - He thinks I still care
TTITLE18=Skeeter Davis - Sweet dreams
TTITLE19=Skeeter Davis - I honestly love you
EXTD=
EXTT0=
EXTT1=
EXTT2=
EXTT3=
EXTT4=
EXTT5=
EXTT6=
EXTT7=
EXTT8=
EXTT9=
EXTT10=
EXTT11=
EXTT12=
EXTT13=
EXTT14=
EXTT15=
EXTT16=
EXTT17=
EXTT18=
EXTT19=
PLAYORDER=
